<?xml version="1.0" encoding="UTF-8" standalone="no"?>
<!-- Created with Inkscape (http://www.inkscape.org/) -->

<svg
   xmlns:dc="http://purl.org/dc/elements/1.1/"
   xmlns:cc="http://creativecommons.org/ns#"
   xmlns:rdf="http://www.w3.org/1999/02/22-rdf-syntax-ns#"
   xmlns:svg="http://www.w3.org/2000/svg"
   xmlns="http://www.w3.org/2000/svg"
   xmlns:sodipodi="http://sodipodi.sourceforge.net/DTD/sodipodi-0.dtd"
   xmlns:inkscape="http://www.inkscape.org/namespaces/inkscape"
   width="180"
   height="64"
   viewBox="0 0 180 64.000002"
   id="svg8894"
   version="1.1"
   inkscape:version="0.91 r13725"
   sodipodi:docname="RestaurantBrands-logo.svg">
  <defs
     id="defs8896">
    <clipPath
       id="clip3">
      <path
         inkscape:connector-curvature="0"
         d="M 408.16406,63 453,63 l 0,24 -44.83594,0 z m 0,0"
         id="path152" />
    </clipPath>
    <clipPath
       id="clip4">
      <path
         inkscape:connector-curvature="0"
         d="m 538,53 7.00781,0 0,30 L 538,83 Z m 0,0"
         id="path155" />
    </clipPath>
    <clipPath
       id="clip5">
      <path
         inkscape:connector-curvature="0"
         d="m 469,83 63,0 0,12.328125 -63,0 z m 0,0"
         id="path158" />
    </clipPath>
  </defs>
  <sodipodi:namedview
     id="base"
     pagecolor="#ffffff"
     bordercolor="#666666"
     borderopacity="1.0"
     inkscape:pageopacity="0.0"
     inkscape:pageshadow="2"
     inkscape:zoom="2.4375416"
     inkscape:cx="-8.9255227"
     inkscape:cy="116.65892"
     inkscape:document-units="px"
     inkscape:current-layer="layer1"
     showgrid="false"
     units="px"
     inkscape:window-width="2560"
     inkscape:window-height="1411"
     inkscape:window-x="1920"
     inkscape:window-y="0"
     inkscape:window-maximized="1" />
  <metadata
     id="metadata8899">
    <rdf:RDF>
      <cc:Work
         rdf:about="">
        <dc:format>image/svg+xml</dc:format>
        <dc:type
           rdf:resource="http://purl.org/dc/dcmitype/StillImage" />
        <dc:title></dc:title>
      </cc:Work>
    </rdf:RDF>
  </metadata>
  <g
     inkscape:label="Layer 1"
     inkscape:groupmode="layer"
     id="layer1"
     transform="translate(0,-988.3622)">
    <g
       transform="matrix(1.25,0,0,1.2499999,-505.7322,928.26016)"
       id="g8729">
      <g
         clip-path="url(#clip3)"
         id="g167"
         style="clip-rule:nonzero">
        <path
           style="fill:#94d4d7;fill-opacity:1;fill-rule:nonzero;stroke:none"
           d="m 432.86328,84.726562 -4.67578,-0.0039 c -1.80859,0 -3.56641,-0.320312 -5.18359,-0.878906 -0.0117,-0.0039 -0.0234,-0.0078 -0.0391,-0.01172 -8.02343,-1.140625 -14.01562,-7.769531 -13.65234,-15.46875 l 0.23828,-5.019531 0,-0.02344 c -0.008,0.0078 -0.0195,0.01563 -0.0273,0.02344 -0.88672,0.917969 -1.39453,2.105469 -1.35547,3.382812 l 0.1914,5.898438 c 0.2461,7.859375 7.85547,14.4375 17,14.15625 l 27.35938,-0.902344 -19.83203,-1.152344 z m 0,0"
           id="path169"
           inkscape:connector-curvature="0" />
      </g>
      <path
         style="fill:#fab314;fill-opacity:1;fill-rule:nonzero;stroke:none"
         d="m 415.92969,57.453125 c 0.25,-0.105469 0.50781,-0.195313 0.77343,-0.261719 l -1.4375,-0.0078 c -3.03515,-0.01953 -5.53125,2.191406 -5.66406,5.015625 l -0.0508,1.117187 c 0.78125,-0.796875 1.81641,-1.390625 3.03516,-1.664062 0.3125,-1.890625 1.61328,-3.464844 3.34375,-4.199219"
         id="path171"
         inkscape:connector-curvature="0" />
      <path
         style="fill:#eb192e;fill-opacity:1;fill-rule:nonzero;stroke:none"
         d="m 530.15625,52.035156 c -6.91797,0 -60.14453,2.605469 -60.14453,2.605469 l -52.14844,2.371094 c -0.39844,0.01953 -0.78906,0.08203 -1.16406,0.179687 -0.26172,0.07031 -0.51953,0.15625 -0.76953,0.261719 -1.73047,0.734375 -3.03125,2.308594 -3.34375,4.199219 0.0195,0 0.0351,-0.0039 0.0508,-0.0078 0.3125,-0.06641 0.67187,-0.113281 0.99609,-0.136719 l 55.0625,-3.878906 c 0,0 0.9336,-0.07031 2.5625,-0.191406 11.07031,-0.808594 54.57031,-3.96875 60.94531,-4.171875 2.77344,-0.08594 4.65625,0.03906 5.98438,0.273437 -1.08594,-0.757812 -2.98828,-1.503906 -8.03125,-1.503906"
         id="path173"
         inkscape:connector-curvature="0" />
      <path
         style="fill:#a69c35;fill-opacity:1;fill-rule:nonzero;stroke:none"
         d="m 412.47656,69.769531 c 0,-0.01563 0,-0.03125 -0.004,-0.04297 -0.008,-0.222656 -0.0117,-0.445312 -0.0117,-0.671874 l 0.0156,-6.503907 c 0.0274,-0.320312 0.0625,-0.601562 0.10938,-0.894531 -1.21875,0.269531 -2.25391,0.863281 -3.03516,1.664062 l 0,0.02344 -0.23828,5.019531 c -0.36328,7.699219 5.62891,14.328125 13.65234,15.46875 -5.89843,-2.058593 -10.1914,-7.617187 -10.48828,-14.0625"
         id="path175"
         inkscape:connector-curvature="0" />
      <g
         clip-path="url(#clip4)"
         id="g177"
         style="clip-rule:nonzero">
        <path
           style="fill:#94d4d7;fill-opacity:1;fill-rule:nonzero;stroke:none"
           d="m 544.80469,59.617188 c -0.60157,-2.441407 -2.02735,-3.855469 -3.00391,-4.554688 -0.73828,-0.484375 -1.44922,-1.148438 -3.61328,-1.527344 0.40234,0.28125 0.69141,0.558594 0.98828,0.804688 0.90234,0.800781 2.20703,2.40625 2.70703,5.109375 0.25781,1.390625 0.10938,4.027343 -0.23047,7.089843 -0.37109,3.3125 -0.96484,7.121094 -1.52734,10.402344 0,0.0078 -0.004,0.01172 -0.004,0.01953 0,-0.0078 0.004,-0.01172 0.004,-0.01953 -0.26953,1.574219 -0.53125,3.03125 -0.75391,4.246094 -0.0898,0.484375 -0.23047,0.882812 -0.46093,1.292969 -0.0117,0.02344 -0.14454,0.265625 -0.23047,0.378906 0,0 -0.004,0 -0.004,0 0,0 0,0.0039 0,0.0039 0.043,-0.0078 0.0859,-0.01563 0.12891,-0.01953 2.01172,-0.261719 3.64062,-1.621094 3.96093,-3.386719 1.02344,-5.585937 2.84766,-16.574219 2.03907,-19.839843"
           id="path179"
           inkscape:connector-curvature="0" />
      </g>
      <path
         style="fill:#fab314;fill-opacity:1;fill-rule:nonzero;stroke:none"
         d="m 453.00781,85.863281 0.0352,0.0039 -0.32422,0.01172 2.27344,0.128906 14.80468,0.441407 0,-1.351563 z m 0,0"
         id="path181"
         inkscape:connector-curvature="0" />
      <path
         style="fill:#fab314;fill-opacity:1;fill-rule:nonzero;stroke:none"
         d="m 535.01172,84.808594 -3.61719,-0.0039 0.0586,3.488281 1.8711,0.05469 c 2.17969,0.105469 4.11328,-0.398437 4.60547,-2.371094 0.22656,-0.917968 0.48047,-1.972656 0.75,-3.117187 -0.80469,1.1875 -2.16016,1.949219 -3.66797,1.949219"
         id="path183"
         inkscape:connector-curvature="0" />
      <path
         style="fill:#a69c35;fill-opacity:1;fill-rule:nonzero;stroke:none"
         d="m 453.00781,85.863281 16.78906,-0.765625 0,-0.339844 -36.91015,-0.03125 19.83203,1.152344 0.32422,-0.01172 z m 0,0"
         id="path185"
         inkscape:connector-curvature="0" />
      <path
         style="fill:#eb192e;fill-opacity:1;fill-rule:nonzero;stroke:none"
         d="m 538.67578,82.859375 c -0.13672,0.01563 -0.27344,0.02344 -0.41016,0.03125 l -6.90234,0.210937 0.0312,1.703126 3.61719,0.0039 c 1.50781,0 2.86328,-0.761719 3.66797,-1.949219 0,0 0,0 0.004,0 l -0.004,0 c 0,0 -0.004,0 -0.004,0"
         id="path187"
         inkscape:connector-curvature="0" />
      <path
         style="fill:#bd1e2e;fill-opacity:1;fill-rule:nonzero;stroke:none"
         d="m 541.65234,66.539062 c 0.33985,-3.0625 0.48438,-5.699218 0.23047,-7.089843 -0.5,-2.703125 -1.80469,-4.308594 -2.70703,-5.109375 -0.29687,-0.246094 -0.58984,-0.523438 -0.98828,-0.804688 0,0 0,0 -0.004,0 -1.32812,-0.230468 -3.20703,-0.355468 -5.98047,-0.269531 -6.37109,0.199219 -49.87109,3.363281 -60.9414,4.171875 -1.63281,0.121094 -2.5625,0.1875 -2.5625,0.1875 l -55.0625,3.882812 c -0.34375,0.02344 -0.72656,0.07422 -1.04688,0.148438 -0.0508,0.292969 -0.082,0.574219 -0.11328,0.894531 l -0.0156,6.503907 c 0,0.222656 0.004,0.449218 0.0156,0.671874 0,0.01172 0,0.02734 0,0.04297 0.29688,6.445313 4.58985,12.003907 10.48828,14.0625 0.0117,0.0039 0.0274,0.0078 0.0391,0.01172 1.61718,0.558594 3.375,0.878906 5.18359,0.878906 l 11.98828,0.01172 29.62109,0.02344 0,-0.0039 61.55079,-1.652344 0.0156,0 6.90234,-0.210937 c 0.13672,-0.0039 0.27344,-0.01563 0.41016,-0.03125 0,0 0.004,0 0.004,0 0,0 0,0 0.004,0 0.082,-0.113281 0.21485,-0.355469 0.22657,-0.378906 0.23046,-0.410157 0.36718,-0.808594 0.45703,-1.292969 0.22656,-1.214844 0.48828,-2.671875 0.75781,-4.246094 0,0.0078 -0.004,0.01172 -0.004,0.01953 0,-0.0078 0.004,-0.01172 0.004,-0.01953 0.5625,-3.28125 1.15625,-7.089844 1.52734,-10.402344"
         id="path189"
         inkscape:connector-curvature="0" />
      <path
         style="fill:#ffffff;fill-opacity:1;fill-rule:nonzero;stroke:none"
         d="m 436.72656,70.523438 c 0.66406,0 1.21094,-0.07422 1.64453,-0.230469 0.4336,-0.152344 0.79297,-0.390625 1.08203,-0.714844 0.28516,-0.320313 0.50782,-0.695313 0.66016,-1.125 0.15625,-0.425781 0.23438,-0.910156 0.23438,-1.445313 0,-0.652343 -0.16407,-1.136718 -0.49219,-1.460937 -0.32813,-0.320313 -0.84766,-0.480469 -1.5586,-0.480469 -0.51171,0 -0.85156,0.0078 -1.02734,0.01953 l -1.17578,5.4375 z m 2.94531,0.804687 c 0.40235,0.328125 0.69532,0.644531 0.87891,0.949219 0.1875,0.304687 0.34375,0.75 0.46875,1.332031 l 0.29297,1.40625 c 0.10547,0.511719 0.20703,0.875 0.30469,1.09375 0.0976,0.214844 0.23047,0.394531 0.39453,0.53125 0.16406,0.136719 0.38672,0.238281 0.67578,0.304687 l -0.14063,0.664063 -3.58593,0 c -0.22266,-0.628906 -0.41797,-1.375 -0.58203,-2.242187 l -0.32422,-1.667969 c -0.0937,-0.5 -0.20313,-0.898438 -0.33203,-1.183594 -0.125,-0.289063 -0.28907,-0.496094 -0.48047,-0.625 -0.19532,-0.125 -0.45703,-0.191406 -0.78516,-0.191406 l -0.625,0 -0.72266,3.195312 c -0.0469,0.222657 -0.0781,0.414063 -0.10156,0.574219 -0.0195,0.160156 -0.0273,0.363281 -0.0273,0.605469 0,0.304687 0.0781,0.523437 0.23437,0.652343 0.15625,0.125 0.40235,0.199219 0.73828,0.21875 l -0.14062,0.664063 -5.19531,0 0.14062,-0.664063 c 0.28125,-0.07812 0.5,-0.191406 0.64844,-0.332031 0.14844,-0.140625 0.28125,-0.335937 0.38672,-0.597656 0.10547,-0.257813 0.21484,-0.628906 0.32031,-1.121094 l 1.83203,-8.289062 c 0.0859,-0.394531 0.12891,-0.789063 0.12891,-1.175781 0,-0.28125 -0.0664,-0.488282 -0.19531,-0.621094 -0.13282,-0.128906 -0.34375,-0.214844 -0.63672,-0.253906 l 0.14062,-0.664063 5.01172,0 c 0.67969,0 1.21484,0.01953 1.60547,0.05469 0.39062,0.03906 0.76562,0.109376 1.125,0.222657 0.35937,0.109375 0.66797,0.246093 0.92578,0.410156 0.25781,0.164063 0.47656,0.359375 0.66406,0.589844 0.1836,0.226562 0.32422,0.492187 0.42188,0.792969 0.0976,0.300781 0.14453,0.640624 0.14453,1.015624 0,1.011719 -0.29688,1.871094 -0.89453,2.574219 -0.59766,0.703125 -1.50391,1.265625 -2.72266,1.6875 z m 0,0"
         id="path191"
         inkscape:connector-curvature="0" />
      <path
         style="fill:#ffffff;fill-opacity:1;fill-rule:nonzero;stroke:none"
         d="m 446.23437,72.144531 c 1.23047,-0.03516 2.17579,-0.269531 2.82813,-0.710937 0.65234,-0.4375 0.98047,-1.058594 0.98047,-1.863282 0,-0.34375 -0.0781,-0.601562 -0.23438,-0.78125 -0.16015,-0.175781 -0.3789,-0.265624 -0.66015,-0.265624 -0.625,0 -1.1836,0.308593 -1.6836,0.925781 -0.5,0.617187 -0.91015,1.515625 -1.23047,2.695312 m 5.32813,3.375 c -0.67969,0.761719 -1.40625,1.332031 -2.1875,1.699219 -0.78125,0.367188 -1.62891,0.550781 -2.53906,0.550781 -0.78125,0 -1.44922,-0.136719 -2,-0.410156 -0.54688,-0.273437 -0.96094,-0.683594 -1.24219,-1.222656 -0.27734,-0.539063 -0.41406,-1.183594 -0.41406,-1.933594 0,-0.347656 0.0469,-0.792969 0.14062,-1.335937 0.125,-0.738282 0.32031,-1.394532 0.58203,-1.972657 0.32813,-0.707031 0.75782,-1.320312 1.28516,-1.828125 0.53125,-0.507812 1.15234,-0.902344 1.86719,-1.175781 0.71093,-0.273437 1.49609,-0.414063 2.34375,-0.414063 1.00781,0 1.76953,0.183594 2.29297,0.550782 0.52343,0.363281 0.78515,0.921875 0.78515,1.671875 0,0.511719 -0.10156,0.960937 -0.30859,1.347656 -0.20313,0.390625 -0.54297,0.742187 -1.01953,1.054687 -0.47657,0.316407 -1.14844,0.570313 -2.01563,0.765626 -0.86719,0.195312 -1.91406,0.304687 -3.14062,0.332031 -0.0859,0.394531 -0.12891,0.804687 -0.12891,1.226562 0,0.246094 0.0234,0.484375 0.0703,0.707031 0.0469,0.222657 0.12891,0.421876 0.25,0.597657 0.1211,0.175781 0.28125,0.3125 0.48438,0.417969 0.19922,0.101562 0.45703,0.15625 0.77344,0.15625 0.58984,0 1.12109,-0.121094 1.59765,-0.359376 0.47656,-0.234374 1.03516,-0.660156 1.67578,-1.269531 z m 0,0"
         id="path193"
         inkscape:connector-curvature="0" />
      <path
         style="fill:#ffffff;fill-opacity:1;fill-rule:nonzero;stroke:none"
         d="m 453.86328,74.796875 c 0.0312,0.480469 0.12891,0.867187 0.29688,1.160156 0.16406,0.292969 0.36328,0.492188 0.60546,0.601563 0.24219,0.113281 0.52344,0.167968 0.84375,0.167968 0.53125,0 0.94141,-0.128906 1.22657,-0.386718 0.28906,-0.257813 0.43359,-0.621094 0.43359,-1.089844 0,-0.285156 -0.0469,-0.519531 -0.14062,-0.714844 -0.0937,-0.195312 -0.25,-0.382812 -0.46094,-0.566406 -0.21485,-0.1875 -0.56641,-0.425781 -1.04688,-0.71875 -0.67187,-0.402344 -1.15625,-0.820312 -1.46093,-1.253906 -0.3086,-0.429688 -0.45704,-0.914063 -0.45704,-1.453125 0,-0.984375 0.36719,-1.742188 1.10547,-2.269531 0.73438,-0.53125 1.76563,-0.792969 3.09375,-0.792969 0.51563,0 1.07032,0.03906 1.66407,0.125 0.59375,0.08203 1.13281,0.195312 1.62109,0.335937 l -0.52344,2.402344 -1.27344,0 c -0.0625,-0.625 -0.21875,-1.082031 -0.47656,-1.375 -0.25781,-0.296875 -0.6289,-0.445312 -1.11328,-0.445312 -0.44922,0 -0.80859,0.117187 -1.07812,0.347656 -0.27344,0.230468 -0.41016,0.542968 -0.41016,0.941406 0,0.246094 0.0547,0.464844 0.15625,0.652344 0.10547,0.1875 0.26953,0.375 0.5,0.5625 0.22656,0.1875 0.56641,0.414062 1.01562,0.683594 0.70704,0.421874 1.21875,0.859374 1.52735,1.304687 0.30859,0.449219 0.46094,0.976563 0.46094,1.578125 0,0.683594 -0.1836,1.269531 -0.54688,1.75 -0.36719,0.484375 -0.86719,0.839844 -1.5,1.074219 -0.63281,0.234375 -1.35547,0.351562 -2.16406,0.351562 -0.71875,0 -1.38281,-0.04297 -2,-0.128906 -0.61719,-0.08594 -1.19531,-0.203125 -1.73828,-0.351563 l 0.5625,-2.492187 z m 0,0"
         id="path195"
         inkscape:connector-curvature="0" />
      <path
         style="fill:#ffffff;fill-opacity:1;fill-rule:nonzero;stroke:none"
         d="m 467.98437,75.78125 c -0.47656,0.515625 -0.89843,0.910156 -1.27734,1.1875 -0.375,0.273438 -0.76562,0.476562 -1.17187,0.605469 -0.41016,0.132812 -0.88282,0.195312 -1.41797,0.195312 -0.54297,0 -0.9961,-0.09766 -1.35547,-0.296875 -0.35547,-0.195312 -0.61719,-0.460937 -0.77735,-0.792968 -0.16015,-0.332032 -0.24218,-0.703126 -0.24218,-1.121094 0,-0.3125 0.0234,-0.613282 0.0703,-0.898438 0.0469,-0.285156 0.14453,-0.753906 0.29297,-1.402344 l 1.03515,-4.363281 -1.35546,0 0.14062,-0.660156 c 0.41406,-0.02734 0.73828,-0.09766 0.97266,-0.207031 0.23437,-0.113282 0.43359,-0.273438 0.59765,-0.488282 0.16407,-0.214843 0.32032,-0.507812 0.46875,-0.882812 0.14844,-0.375 0.3125,-0.886719 0.49219,-1.53125 l 2.41406,0 -0.58593,2.515625 2.44531,0 -0.27344,1.253906 -2.46094,0 -1.11718,4.59375 c -0.0469,0.203125 -0.0899,0.398438 -0.12891,0.59375 -0.0391,0.195313 -0.0742,0.378907 -0.10156,0.558594 -0.0274,0.175781 -0.0469,0.324219 -0.0547,0.441406 -0.0117,0.117188 -0.0156,0.222657 -0.0156,0.316407 0,0.316406 0.0547,0.546874 0.17188,0.6875 0.11328,0.144531 0.28125,0.21875 0.5,0.21875 0.30469,0 0.61328,-0.109376 0.92969,-0.324219 0.32031,-0.210938 0.66406,-0.542969 1.03125,-0.992188 z m 0,0"
         id="path197"
         inkscape:connector-curvature="0" />
      <path
         style="fill:#ffffff;fill-opacity:1;fill-rule:nonzero;stroke:none"
         d="m 475.625,71.359375 c 0.0469,-0.214844 0.0859,-0.453125 0.11328,-0.71875 0.0312,-0.265625 0.0469,-0.523437 0.0469,-0.769531 0,-0.441406 -0.0859,-0.777344 -0.25,-1.003906 -0.16797,-0.230469 -0.44532,-0.34375 -0.82422,-0.34375 -0.625,0 -1.17578,0.3125 -1.66016,0.941406 -0.48047,0.625 -0.87109,1.46875 -1.16797,2.527344 -0.29297,1.058593 -0.4414,2.007812 -0.4414,2.84375 0,0.488281 0.0742,0.855468 0.21875,1.09375 0.14062,0.242187 0.36718,0.363281 0.66796,0.363281 0.44141,0 0.89063,-0.214844 1.35157,-0.648438 0.46093,-0.429687 0.82812,-0.9375 1.10937,-1.519531 0.28125,-0.585938 0.53516,-1.382812 0.75391,-2.394531 z m 1.51562,-3.15625 0.90625,-0.726563 1.125,0.164063 -1.54687,7.003906 C 477.54297,75 477.48437,75.285156 477.44922,75.5 c -0.0391,0.214844 -0.0547,0.394531 -0.0547,0.542969 0,0.300781 0.0703,0.519531 0.21875,0.652343 0.14844,0.132813 0.41016,0.21875 0.78516,0.25 l -0.10938,0.664063 -3.85937,0 0.54297,-2.058594 -0.13282,-0.04297 c -0.45703,0.589844 -0.8789,1.046876 -1.26953,1.375 -0.39453,0.324219 -0.77734,0.554688 -1.15625,0.6875 -0.3789,0.132813 -0.8164,0.199219 -1.3125,0.199219 -0.46875,0 -0.88281,-0.109375 -1.23828,-0.332031 -0.35547,-0.21875 -0.63672,-0.570312 -0.84375,-1.050781 -0.20703,-0.476563 -0.30859,-1.085938 -0.30859,-1.820313 0,-0.703125 0.082,-1.414062 0.24609,-2.132812 0.16406,-0.714844 0.40625,-1.382813 0.72656,-2.003906 0.32032,-0.621094 0.72657,-1.152344 1.21485,-1.59375 0.49218,-0.441407 1.04687,-0.78125 1.66406,-1.011719 0.62109,-0.230469 1.29687,-0.347657 2.02734,-0.347657 0.9961,0 1.84766,0.242188 2.55078,0.726563"
         id="path199"
         inkscape:connector-curvature="0" />
      <path
         style="fill:#ffffff;fill-opacity:1;fill-rule:nonzero;stroke:none"
         d="m 480.35156,67.640625 4.17188,0 -1.25782,5.464844 c -0.17968,0.78125 -0.29296,1.316406 -0.33203,1.609375 -0.0391,0.296875 -0.0586,0.527344 -0.0586,0.695312 0,0.3125 0.0586,0.542969 0.18359,0.683594 0.125,0.140625 0.3086,0.210938 0.55078,0.210938 0.13282,0 0.27735,-0.03516 0.42969,-0.09766 0.15235,-0.0625 0.3086,-0.15625 0.46094,-0.28125 0.15625,-0.121093 0.34375,-0.296875 0.56641,-0.515625 0.21875,-0.222656 0.41406,-0.457031 0.58203,-0.710937 0.16797,-0.25 0.30468,-0.519531 0.41797,-0.808594 0.10937,-0.285156 0.21093,-0.652344 0.30468,-1.09375 l 1.10547,-5.15625 2.88672,0 -1.57812,7.09375 c -0.0352,0.160156 -0.082,0.390625 -0.13672,0.6875 -0.0586,0.300781 -0.0859,0.550781 -0.0859,0.75 0,0.28125 0.0781,0.476563 0.23437,0.578125 0.16016,0.105469 0.40625,0.171875 0.74219,0.195312 l -0.15234,0.664063 -3.78906,0 0.54296,-2.058594 -0.12109,-0.04297 c -0.62109,0.777344 -1.22266,1.351563 -1.80469,1.714844 -0.57812,0.367188 -1.23828,0.546875 -1.97265,0.546875 -0.67969,0 -1.21485,-0.191406 -1.60938,-0.578125 -0.39453,-0.382812 -0.59375,-0.914062 -0.59375,-1.59375 0,-0.433594 0.0664,-0.953125 0.19922,-1.554687 l 0.82813,-3.71875 c 0.0625,-0.308594 0.10937,-0.546875 0.13281,-0.714844 0.0234,-0.167969 0.0351,-0.3125 0.0351,-0.429687 0,-0.296876 -0.0742,-0.503907 -0.21875,-0.625 -0.14843,-0.121094 -0.41015,-0.203126 -0.78515,-0.25 z m 0,0"
         id="path201"
         inkscape:connector-curvature="0" />
      <path
         style="fill:#ffffff;fill-opacity:1;fill-rule:nonzero;stroke:none"
         d="m 499.64062,70.375 -1.79687,0 c 0,-0.449219 -0.0508,-0.761719 -0.14844,-0.9375 -0.0976,-0.171875 -0.26172,-0.261719 -0.49609,-0.261719 -0.10547,0 -0.21875,0.02344 -0.33594,0.06641 -0.11719,0.04297 -0.25391,0.121093 -0.40234,0.230468 -0.15235,0.113282 -0.33203,0.292969 -0.54297,0.539063 -0.21094,0.246093 -0.38672,0.488281 -0.52735,0.722656 -0.14062,0.234375 -0.25781,0.480469 -0.35156,0.738281 -0.0937,0.257813 -0.18359,0.585938 -0.26172,0.980469 l -1.10547,5.15625 -2.88671,0 1.57812,-7.09375 c 0.14844,-0.664063 0.22266,-1.144531 0.22266,-1.4375 0,-0.28125 -0.0781,-0.476563 -0.23828,-0.578125 -0.15625,-0.105469 -0.40235,-0.171875 -0.73829,-0.195312 l 0.15235,-0.664063 2.76172,-0.113281 1.13672,0 -0.75391,2.332031 0.12109,0.04297 c 0.5625,-0.796875 1.15625,-1.402344 1.78125,-1.808594 0.6211,-0.410156 1.29297,-0.613281 2.01953,-0.613281 0.44141,0 0.91016,0.0625 1.40625,0.1875 z m 0,0"
         id="path203"
         inkscape:connector-curvature="0" />
      <path
         style="fill:#ffffff;fill-opacity:1;fill-rule:nonzero;stroke:none"
         d="m 506.16406,71.359375 c 0.0469,-0.214844 0.0859,-0.453125 0.11719,-0.71875 0.0312,-0.265625 0.0469,-0.523437 0.0469,-0.769531 0,-0.441406 -0.0859,-0.777344 -0.2539,-1.003906 -0.16797,-0.230469 -0.44141,-0.34375 -0.82422,-0.34375 -0.62109,0 -1.17578,0.3125 -1.65625,0.941406 -0.48438,0.625 -0.87109,1.46875 -1.16797,2.527344 -0.29297,1.058593 -0.44141,2.007812 -0.44141,2.84375 0,0.488281 0.0703,0.855468 0.21485,1.09375 0.14453,0.242187 0.36719,0.363281 0.66797,0.363281 0.44531,0 0.89453,-0.214844 1.35156,-0.648438 0.46094,-0.429687 0.83203,-0.9375 1.11328,-1.519531 0.28125,-0.585938 0.53125,-1.382812 0.75391,-2.394531 z m 1.51953,-3.15625 0.90625,-0.726563 1.125,0.164063 -1.55078,7.003906 C 508.08594,75 508.02734,75.285156 507.98828,75.5 c -0.0352,0.214844 -0.0547,0.394531 -0.0547,0.542969 0,0.300781 0.0742,0.519531 0.22266,0.652343 0.14844,0.132813 0.40625,0.21875 0.78516,0.25 l -0.11329,0.664063 -3.85937,0 0.54297,-2.058594 -0.12891,-0.04297 c -0.45703,0.589844 -0.88281,1.046876 -1.27344,1.375 -0.39062,0.324219 -0.77734,0.554688 -1.15625,0.6875 -0.3789,0.132813 -0.8164,0.199219 -1.3125,0.199219 -0.46875,0 -0.8789,-0.109375 -1.23437,-0.332031 -0.35547,-0.21875 -0.63672,-0.570312 -0.84375,-1.050781 -0.20703,-0.476563 -0.3125,-1.085938 -0.3125,-1.820313 0,-0.703125 0.082,-1.414062 0.24609,-2.132812 0.16407,-0.714844 0.40625,-1.382813 0.73047,-2.003906 0.32031,-0.621094 0.72656,-1.152344 1.21485,-1.59375 0.48828,-0.441407 1.04296,-0.78125 1.66406,-1.011719 0.62109,-0.230469 1.29297,-0.347657 2.02344,-0.347657 1,0 1.85156,0.242188 2.55468,0.726563"
         id="path205"
         inkscape:connector-curvature="0" />
      <path
         style="fill:#ffffff;fill-opacity:1;fill-rule:nonzero;stroke:none"
         d="m 520.39844,77.609375 -4.17188,0 1.25781,-5.464844 c 0.17969,-0.777343 0.28907,-1.316406 0.33204,-1.609375 0.0391,-0.296875 0.0586,-0.527344 0.0586,-0.695312 0,-0.300782 -0.0625,-0.523438 -0.19141,-0.671875 -0.1289,-0.148438 -0.3125,-0.222657 -0.55078,-0.222657 -0.21484,0 -0.44922,0.08203 -0.70312,0.242188 -0.25782,0.160156 -0.54297,0.414062 -0.85547,0.753906 -0.31641,0.339844 -0.56641,0.703125 -0.75391,1.085938 -0.1875,0.382812 -0.33984,0.859375 -0.45312,1.425781 l -1.10547,5.15625 -2.88281,0 1.57812,-7.09375 c 0.0312,-0.164063 0.0781,-0.390625 0.13281,-0.691406 0.0586,-0.296875 0.0859,-0.546875 0.0859,-0.746094 0,-0.28125 -0.0781,-0.476563 -0.23437,-0.578125 -0.16016,-0.105469 -0.40625,-0.167969 -0.73829,-0.195312 l 0.14844,-0.664063 2.76563,-0.109375 1.05468,0 -0.57421,2.167969 0.12109,0.04297 c 0.46094,-0.570313 0.89062,-1.019532 1.28516,-1.34375 0.39843,-0.324219 0.78906,-0.558594 1.18359,-0.703126 0.39062,-0.144531 0.82422,-0.21875 1.30078,-0.21875 0.69141,0 1.23438,0.195313 1.62891,0.582032 0.39453,0.382812 0.58984,0.914062 0.58984,1.589844 0,0.4375 -0.0625,0.957031 -0.19922,1.558593 l -0.82422,3.71875 c -0.0664,0.308594 -0.11328,0.546875 -0.13672,0.714844 -0.0234,0.167969 -0.0352,0.3125 -0.0352,0.429687 0,0.304688 0.0781,0.515626 0.22656,0.636719 0.15234,0.117188 0.41016,0.199219 0.78125,0.238281 z m 0,0"
         id="path207"
         inkscape:connector-curvature="0" />
      <path
         style="fill:#ffffff;fill-opacity:1;fill-rule:nonzero;stroke:none"
         d="m 528.34766,75.78125 c -0.47266,0.515625 -0.89844,0.910156 -1.27344,1.1875 -0.375,0.273438 -0.76953,0.476562 -1.17578,0.605469 -0.41016,0.132812 -0.88282,0.195312 -1.41797,0.195312 -0.54297,0 -0.9961,-0.09766 -1.35156,-0.296875 -0.35938,-0.195312 -0.61719,-0.460937 -0.78125,-0.792968 -0.16016,-0.332032 -0.23829,-0.703126 -0.23829,-1.121094 0,-0.3125 0.0195,-0.613282 0.0664,-0.898438 0.0508,-0.285156 0.14453,-0.753906 0.29297,-1.402344 l 1.03516,-4.363281 -1.35547,0 0.14062,-0.660156 c 0.41406,-0.02734 0.73828,-0.09766 0.97266,-0.207031 0.23828,-0.113282 0.43359,-0.273438 0.60156,-0.488282 0.16406,-0.214843 0.31641,-0.507812 0.46484,-0.882812 0.14844,-0.375 0.3125,-0.886719 0.49219,-1.53125 l 2.41406,0 -0.58593,2.515625 2.44531,0 -0.27344,1.253906 -2.46094,0 -1.11718,4.59375 c -0.0469,0.203125 -0.0899,0.398438 -0.12891,0.59375 -0.0391,0.195313 -0.0742,0.378907 -0.10156,0.558594 -0.0273,0.175781 -0.043,0.324219 -0.0547,0.441406 -0.008,0.117188 -0.0156,0.222657 -0.0156,0.316407 0,0.316406 0.0586,0.546874 0.17187,0.6875 0.11328,0.144531 0.28125,0.21875 0.50391,0.21875 0.30078,0 0.60937,-0.109376 0.92968,-0.324219 0.31641,-0.210938 0.66016,-0.546875 1.02735,-0.992188 z m 0,0"
         id="path209"
         inkscape:connector-curvature="0" />
      <g
         clip-path="url(#clip5)"
         id="g211"
         style="clip-rule:nonzero">
        <path
           style="fill:#000000;fill-opacity:1;fill-rule:nonzero;stroke:none"
           d="m 531.46094,88.703125 -0.0977,-5.59375 0,-0.0078 -0.0156,0 -61.55079,1.652344 0,10.570313 53.88672,0 c 0,0 3.66797,0.1875 5.76172,-1.917969 1.71485,-1.730469 2.08203,-3.804688 2.01563,-4.703125"
           id="path213"
           inkscape:connector-curvature="0" />
      </g>
      <path
         style="fill:#ffffff;fill-opacity:1;fill-rule:nonzero;stroke:none"
         d="m 483.60156,89.945312 -1.53125,0 0,1.953126 1.53125,0 c 0.67578,0 1.05469,-0.414063 1.05469,-0.980469 0,-0.566407 -0.37891,-0.972657 -1.05469,-0.972657 m -0.0898,-2.707031 -1.44141,0 0,1.835938 1.44141,0 c 0.62109,0 1.04297,-0.324219 1.04297,-0.917969 0,-0.59375 -0.42188,-0.917969 -1.04297,-0.917969 m 0.17969,5.535157 -2.58985,0 0,-6.40625 2.49219,0 c 1.1875,0 1.93359,0.671874 1.93359,1.753906 0,0.691406 -0.43359,1.1875 -0.86328,1.359375 0.4961,0.195312 0.96094,0.671875 0.96094,1.484375 0,1.179687 -0.79688,1.808594 -1.93359,1.808594"
         id="path215"
         inkscape:connector-curvature="0" />
      <path
         style="fill:#ffffff;fill-opacity:1;fill-rule:nonzero;stroke:none"
         d="m 490.42187,87.238281 -1.4414,0 0,2.007813 1.4414,0 c 0.64844,0 1.08985,-0.371094 1.08985,-1 0,-0.628906 -0.44141,-1.007813 -1.08985,-1.007813 m 1.125,5.535157 -1.35156,-2.699219 -1.21484,0 0,2.699219 -0.97266,0 0,-6.410157 2.48438,0 c 1.21484,0 1.98828,0.785157 1.98828,1.875 0,0.917969 -0.5586,1.5 -1.27735,1.699219 l 1.47657,2.835938 z m 0,0"
         id="path217"
         inkscape:connector-curvature="0" />
      <path
         style="fill:#ffffff;fill-opacity:1;fill-rule:nonzero;stroke:none"
         d="m 496.96875,87.8125 -1,2.84375 1.97266,0 z m 1.68359,4.960938 -0.4414,-1.289063 -2.53125,0 -0.4375,1.289063 -1.03516,0 2.34766,-6.40625 0.78125,0 2.35156,6.40625 z m 0,0"
         id="path219"
         inkscape:connector-curvature="0" />
      <path
         style="fill:#ffffff;fill-opacity:1;fill-rule:nonzero;stroke:none"
         d="m 505.64062,92.773438 -2.95703,-4.507813 0,4.507813 -0.97265,0 0,-6.410157 0.89062,0 2.96094,4.5 0,-4.5 0.97266,0 0,6.410157 z m 0,0"
         id="path221"
         inkscape:connector-curvature="0" />
      <path
         style="fill:#ffffff;fill-opacity:1;fill-rule:nonzero;stroke:none"
         d="m 512.5625,87.667969 c -0.26953,-0.292969 -0.62891,-0.429688 -1.08984,-0.429688 l -1.17969,0 0,4.660157 1.17969,0 c 0.46093,0 0.82031,-0.132813 1.08984,-0.429688 0.33203,-0.371094 0.33984,-1.0625 0.33984,-1.945312 0,-0.882813 -0.008,-1.484376 -0.33984,-1.855469 m 0.66406,4.5 c -0.40625,0.40625 -0.98828,0.605469 -1.65625,0.605469 l -2.25,0 0,-6.40625 2.25,0 c 0.66797,0 1.25,0.195312 1.65625,0.601562 0.69531,0.691406 0.64844,1.628906 0.64844,2.554688 0,0.925781 0.0469,1.953124 -0.64844,2.644531"
         id="path223"
         inkscape:connector-curvature="0" />
      <path
         style="fill:#ffffff;fill-opacity:1;fill-rule:nonzero;stroke:none"
         d="m 518.12891,92.824219 c -0.96094,0 -1.65625,-0.222657 -2.26563,-0.84375 l 0.64844,-0.640625 c 0.46875,0.46875 0.98047,0.613281 1.63672,0.613281 0.83593,0 1.32422,-0.359375 1.32422,-0.980469 0,-0.28125 -0.082,-0.511718 -0.25391,-0.664062 -0.16016,-0.15625 -0.32422,-0.21875 -0.69922,-0.273438 l -0.75781,-0.105468 c -0.52344,-0.07422 -0.9375,-0.253907 -1.21485,-0.515626 -0.3164,-0.296874 -0.46875,-0.699218 -0.46875,-1.222656 0,-1.117187 0.8086,-1.878906 2.14063,-1.878906 0.84766,0 1.44141,0.214844 1.98828,0.726562 l -0.62109,0.613282 c -0.39453,-0.378906 -0.85157,-0.496094 -1.39453,-0.496094 -0.75391,0 -1.16797,0.433594 -1.16797,1 0,0.234375 0.0703,0.441406 0.24218,0.59375 0.16407,0.144531 0.42579,0.25 0.71875,0.296875 l 0.73047,0.105469 c 0.59375,0.09375 0.92578,0.238281 1.19532,0.480468 0.35156,0.304688 0.52343,0.765626 0.52343,1.3125 0,1.179688 -0.96093,1.878907 -2.30468,1.878907"
         id="path225"
         inkscape:connector-curvature="0" />
    </g>
  </g>
</svg>
